<?xml version="1.0" ?>
<!DOCTYPE svg  PUBLIC '-//W3C//DTD SVG 1.1//EN'  'http://www.w3.org/Graphics/SVG/1.1/DTD/svg11.dtd'>
<svg enable-background="new 0 0 30 30" height="30px" id="Odnoklassniki" version="1.1" viewBox="0 0 30 30" width="30px" xml:space="preserve" xmlns="http://www.w3.org/2000/svg" xmlns:xlink="http://www.w3.org/1999/xlink">
<path d="M22,15c-1,0-3,2-7,2s-6-2-7-2c-1.104,0-2,0.896-2,2c0,1,0.568,1.481,1,1.734C8.185,19.427,12,21,12,21l-4.25,5.438  c0,0-0.75,0.935-0.75,1.562c0,1.104,0.896,2,2,2c1.021,0,1.484-0.656,1.484-0.656S14.993,23.993,15,24  c0.007-0.007,4.516,5.344,4.516,5.344S19.979,30,21,30c1.104,0,2-0.896,2-2c0-0.627-0.75-1.562-0.75-1.562L18,21  c0,0,3.815-1.573,5-2.266C23.432,18.481,24,18,24,17C24,15.896,23.104,15,22,15z" stroke="#FE8443" fill="#FE8443" id="K"/>
<path d="M15,0c-3.866,0-7,3.134-7,7s3.134,7,7,7c3.865,0,7-3.134,7-7S18.865,0,15,0z M15,10.5c-1.933,0-3.5-1.566-3.5-3.5  c0-1.933,1.567-3.5,3.5-3.5c1.932,0,3.5,1.567,3.5,3.5C18.5,8.934,16.932,10.5,15,10.5z" id="O" stroke="#FE8443" fill="#FE8443"  />
</svg>