<?xml version="1.0" ?><!DOCTYPE svg  PUBLIC '-//W3C//DTD SVG 1.1//EN'  'http://www.w3.org/Graphics/SVG/1.1/DTD/svg11.dtd'><svg enable-background="new 0 0 64 64" height="64px" id="OK" version="1.1" viewBox="0 0 64 64" width="64px" xml:space="preserve" xmlns="http://www.w3.org/2000/svg" xmlns:xlink="http://www.w3.org/1999/xlink"><linearGradient gradientTransform="matrix(1 0 0 1 -1644 -2181)" gradientUnits="userSpaceOnUse" id="Circle_Shadow_1_" x1="1708.0303" x2="1676.0295" y1="2245" y2="2212.9993"><stop offset="0.3163" style="stop-color:#FFFFFF;stop-opacity:0"/><stop offset="0.3508" style="stop-color:#E9E9E9;stop-opacity:0.0504"/><stop offset="0.4543" style="stop-color:#ACACAC;stop-opacity:0.2018"/><stop offset="0.5572" style="stop-color:#787878;stop-opacity:0.3523"/><stop offset="0.6569" style="stop-color:#4D4D4D;stop-opacity:0.4981"/><stop offset="0.7528" style="stop-color:#2B2B2B;stop-opacity:0.6385"/><stop offset="0.8441" style="stop-color:#131313;stop-opacity:0.7719"/><stop offset="0.9286" style="stop-color:#050505;stop-opacity:0.8956"/><stop offset="1" style="stop-color:#000000"/></linearGradient><polygon enable-background="new    " fill="url(#Circle_Shadow_1_)" id="Circle_Shadow" opacity="0.2" points="64.029,64   64.029,30.059 49,15.029 15.059,48.971 30.088,64 "/><circle cx="32" cy="32" fill="#F2720C" id="Circle" r="24"/><g id="OK_Shadow"><g><defs><circle cx="32.029" cy="32" id="SVGID_1_" r="24"/></defs><clipPath id="SVGID_2_"><use overflow="visible" xlink:href="#SVGID_1_"/></clipPath><linearGradient gradientTransform="matrix(1 0 0 -1 -274 -299)" gradientUnits="userSpaceOnUse" id="SVGID_3_" x1="347.957" x2="296.0792" y1="-374.8994" y2="-323.0216"><stop offset="0.5459" style="stop-color:#000000;stop-opacity:0"/><stop offset="0.547" style="stop-color:#000000;stop-opacity:0.0025"/><stop offset="1" style="stop-color:#000000"/></linearGradient><path clip-path="url(#SVGID_2_)" d="M72.385,64.538    c-0.033-0.037-0.068-0.072-0.105-0.106c-0.034-0.037-0.07-0.072-0.107-0.106c-0.033-0.036-0.068-0.071-0.105-0.104    c-0.034-0.037-0.069-0.072-0.106-0.107c-0.034-0.036-0.069-0.07-0.104-0.104c-0.035-0.036-0.069-0.071-0.106-0.106    c-0.034-0.036-0.069-0.071-0.106-0.105c-0.033-0.037-0.068-0.072-0.105-0.105c-0.035-0.039-0.071-0.074-0.109-0.109    c-0.031-0.034-0.064-0.066-0.099-0.1c-0.037-0.039-0.075-0.078-0.115-0.114c-0.032-0.035-0.067-0.068-0.103-0.103    c-0.034-0.035-0.068-0.07-0.105-0.104c-0.033-0.037-0.068-0.072-0.105-0.106c-0.034-0.037-0.069-0.072-0.107-0.107    c-0.034-0.036-0.068-0.071-0.104-0.104c-0.035-0.038-0.071-0.073-0.108-0.108c-0.034-0.036-0.069-0.071-0.106-0.105    c-0.033-0.036-0.068-0.07-0.104-0.104c-0.034-0.037-0.069-0.072-0.106-0.106c-0.033-0.037-0.068-0.071-0.105-0.106    c-0.034-0.037-0.069-0.071-0.106-0.105c-0.034-0.037-0.069-0.072-0.106-0.105c-0.033-0.037-0.068-0.072-0.105-0.106    c-0.035-0.038-0.07-0.073-0.107-0.108c-0.035-0.035-0.068-0.07-0.104-0.104c-0.034-0.037-0.069-0.072-0.106-0.106    c-0.033-0.036-0.068-0.071-0.105-0.106c-0.034-0.036-0.068-0.071-0.105-0.105c-0.035-0.037-0.07-0.072-0.106-0.105    c-0.034-0.037-0.07-0.073-0.106-0.107c-0.035-0.036-0.068-0.07-0.105-0.104c-0.031-0.034-0.063-0.067-0.098-0.101    c1.321-1.272,2.146-3.058,2.146-5.036c0-1.961-0.809-3.729-2.105-5c-0.035-0.037-0.07-0.072-0.106-0.107    c-0.035-0.035-0.07-0.07-0.106-0.105c-0.035-0.037-0.072-0.074-0.109-0.111c-0.034-0.033-0.068-0.067-0.104-0.102    c-0.035-0.036-0.07-0.07-0.105-0.105s-0.07-0.07-0.106-0.105c-0.035-0.036-0.069-0.07-0.106-0.105    c-0.032-0.035-0.066-0.068-0.102-0.104c-0.038-0.039-0.076-0.077-0.115-0.115c-0.033-0.035-0.068-0.068-0.104-0.104    c-0.035-0.036-0.071-0.071-0.105-0.106c-0.035-0.034-0.07-0.069-0.104-0.104c-0.034-0.033-0.068-0.068-0.103-0.103    c-0.035-0.036-0.072-0.071-0.107-0.106c-0.035-0.037-0.071-0.073-0.108-0.108c-0.036-0.037-0.071-0.073-0.108-0.108    c-0.033-0.035-0.066-0.068-0.102-0.103c-0.038-0.038-0.076-0.076-0.113-0.112c-0.033-0.035-0.067-0.068-0.103-0.102    c-0.035-0.036-0.069-0.071-0.106-0.105c-0.035-0.037-0.07-0.072-0.105-0.106c-0.035-0.036-0.07-0.071-0.105-0.106    s-0.07-0.072-0.106-0.107c-0.035-0.035-0.07-0.07-0.106-0.104c-0.035-0.038-0.072-0.073-0.109-0.11    c-0.034-0.035-0.068-0.067-0.104-0.102c-0.035-0.036-0.07-0.07-0.105-0.105c-0.035-0.037-0.07-0.071-0.106-0.106    c-0.035-0.036-0.069-0.071-0.106-0.106c-0.035-0.035-0.069-0.07-0.105-0.105c-0.036-0.037-0.072-0.073-0.107-0.109    c-0.035-0.035-0.07-0.068-0.104-0.104c-0.036-0.037-0.072-0.073-0.108-0.108c-0.035-0.034-0.068-0.069-0.104-0.104    c-0.034-0.034-0.068-0.069-0.104-0.104c-0.036-0.037-0.071-0.072-0.108-0.109c-0.035-0.035-0.07-0.07-0.106-0.105    c-0.035-0.036-0.071-0.072-0.106-0.107c-0.035-0.033-0.067-0.067-0.104-0.103c-0.036-0.037-0.072-0.074-0.109-0.11    c-0.035-0.035-0.072-0.072-0.107-0.106c-0.035-0.035-0.07-0.069-0.105-0.104c-0.033-0.033-0.066-0.068-0.102-0.102    c-0.036-0.037-0.072-0.074-0.11-0.11c-0.034-0.034-0.069-0.069-0.104-0.104c-0.035-0.037-0.072-0.073-0.109-0.109    c-0.033-0.035-0.066-0.068-0.102-0.104c-0.037-0.037-0.074-0.073-0.111-0.109c-0.034-0.035-0.068-0.068-0.104-0.104    s-0.07-0.07-0.106-0.105c-0.035-0.036-0.069-0.071-0.106-0.105c-0.035-0.037-0.07-0.072-0.105-0.106    c-0.036-0.037-0.072-0.073-0.109-0.109c-0.033-0.034-0.068-0.069-0.103-0.103c-0.036-0.037-0.073-0.073-0.109-0.109    c-0.034-0.035-0.069-0.068-0.104-0.104c-0.034-0.036-0.069-0.071-0.105-0.106c-0.035-0.036-0.07-0.071-0.105-0.106    s-0.07-0.07-0.106-0.105c-0.035-0.036-0.069-0.072-0.106-0.107c-0.037-0.037-0.072-0.072-0.109-0.109    c-0.034-0.034-0.068-0.067-0.104-0.102c-0.035-0.035-0.07-0.07-0.105-0.105c-0.034-0.035-0.069-0.07-0.104-0.105    c-0.035-0.035-0.072-0.072-0.109-0.106c-0.032-0.035-0.066-0.069-0.102-0.104c-0.037-0.037-0.074-0.074-0.113-0.111    c-0.033-0.035-0.067-0.069-0.104-0.104c-0.036-0.037-0.072-0.073-0.111-0.11c-0.033-0.033-0.065-0.066-0.1-0.101    c-0.036-0.036-0.072-0.071-0.109-0.108c-0.033-0.035-0.068-0.07-0.104-0.104c-0.035-0.036-0.071-0.071-0.107-0.106    c-0.035-0.035-0.07-0.07-0.105-0.105c-0.036-0.038-0.073-0.075-0.111-0.111c-0.033-0.033-0.068-0.068-0.104-0.104    c-0.032-0.033-0.066-0.067-0.103-0.103c-0.036-0.036-0.073-0.075-0.112-0.112c-0.033-0.035-0.067-0.068-0.104-0.103    c-0.035-0.036-0.07-0.071-0.105-0.106s-0.07-0.07-0.106-0.105c-0.035-0.036-0.07-0.071-0.106-0.105    c-0.035-0.039-0.074-0.076-0.111-0.111c-0.031-0.033-0.064-0.065-0.098-0.1c-0.037-0.037-0.074-0.074-0.111-0.109    c-0.034-0.036-0.07-0.071-0.106-0.107c-0.032-0.033-0.065-0.066-0.101-0.1c-0.037-0.039-0.075-0.077-0.115-0.116    c-0.032-0.033-0.066-0.065-0.102-0.101c-0.037-0.037-0.074-0.075-0.112-0.112c-0.031-0.032-0.063-0.063-0.097-0.097    c-0.037-0.039-0.074-0.074-0.111-0.111c-0.033-0.034-0.067-0.068-0.102-0.102c-0.037-0.039-0.074-0.076-0.113-0.112    c-0.033-0.035-0.067-0.069-0.104-0.104c-0.035-0.037-0.072-0.072-0.109-0.109c-0.032-0.033-0.066-0.066-0.102-0.102    c-0.036-0.037-0.072-0.074-0.111-0.111c-0.033-0.033-0.065-0.066-0.101-0.101c-0.037-0.037-0.073-0.073-0.11-0.11    c-0.035-0.035-0.07-0.069-0.104-0.104c-0.036-0.037-0.072-0.073-0.109-0.108c-0.032-0.035-0.065-0.068-0.101-0.103    c-0.036-0.037-0.072-0.073-0.109-0.108c-0.035-0.037-0.07-0.072-0.107-0.107c-0.035-0.036-0.07-0.071-0.105-0.105    c-0.033-0.035-0.068-0.07-0.104-0.104c-0.037-0.037-0.073-0.073-0.109-0.109c-0.035-0.035-0.068-0.068-0.104-0.104    c-0.035-0.037-0.07-0.071-0.106-0.106c-0.035-0.036-0.07-0.071-0.106-0.106c-0.035-0.037-0.07-0.072-0.107-0.107    c-0.034-0.036-0.07-0.071-0.105-0.105c-0.033-0.033-0.066-0.066-0.101-0.101c-0.038-0.04-0.077-0.079-0.117-0.117    c-0.032-0.032-0.063-0.065-0.099-0.098c-0.036-0.037-0.073-0.074-0.11-0.111c-0.033-0.034-0.067-0.067-0.103-0.103    c-0.037-0.037-0.074-0.075-0.112-0.112c-0.033-0.033-0.065-0.065-0.101-0.101c-0.035-0.037-0.071-0.072-0.108-0.107    c-0.034-0.036-0.069-0.07-0.104-0.105c-0.037-0.037-0.074-0.074-0.111-0.111c-0.032-0.032-0.064-0.064-0.098-0.096    c-0.037-0.039-0.076-0.078-0.115-0.117c-0.031-0.031-0.064-0.064-0.098-0.096c-0.037-0.039-0.076-0.078-0.113-0.115    c-0.035-0.035-0.069-0.069-0.105-0.104c-0.034-0.035-0.068-0.069-0.104-0.104s-0.07-0.07-0.106-0.105    c-0.035-0.036-0.07-0.07-0.106-0.105c-0.035-0.037-0.07-0.071-0.105-0.106c-0.035-0.036-0.07-0.071-0.105-0.106    s-0.07-0.07-0.106-0.105c-0.036-0.038-0.074-0.075-0.111-0.111c-0.032-0.033-0.067-0.066-0.103-0.101    c-0.034-0.036-0.069-0.071-0.105-0.106c-0.035-0.035-0.07-0.07-0.105-0.105c-0.035-0.036-0.07-0.071-0.106-0.106    c-0.035-0.036-0.069-0.071-0.106-0.106c-0.035-0.035-0.069-0.07-0.104-0.105c-0.036-0.037-0.072-0.072-0.108-0.109    c-0.035-0.033-0.068-0.067-0.104-0.103c-0.037-0.037-0.074-0.074-0.112-0.11c-0.032-0.033-0.063-0.066-0.097-0.098    c-0.038-0.04-0.077-0.078-0.116-0.117c-0.032-0.033-0.065-0.064-0.101-0.099c-0.036-0.038-0.073-0.075-0.111-0.112    c-0.033-0.033-0.066-0.066-0.1-0.1c-0.037-0.038-0.074-0.075-0.112-0.112c-0.034-0.035-0.067-0.069-0.104-0.104    c-0.035-0.035-0.07-0.07-0.105-0.104c-0.035-0.036-0.07-0.071-0.105-0.106c-0.037-0.037-0.074-0.074-0.111-0.11    c-0.032-0.033-0.064-0.065-0.098-0.099c-0.039-0.039-0.076-0.076-0.115-0.115c-0.032-0.032-0.065-0.064-0.099-0.098    c-0.038-0.039-0.075-0.076-0.112-0.113c-0.035-0.034-0.068-0.068-0.104-0.103c-0.035-0.037-0.071-0.071-0.106-0.108    c-0.035-0.035-0.069-0.068-0.104-0.104c-0.036-0.037-0.072-0.072-0.108-0.107c-0.035-0.035-0.07-0.07-0.104-0.105    c-0.037-0.037-0.074-0.074-0.111-0.111c-0.034-0.033-0.067-0.066-0.103-0.101c-0.034-0.036-0.07-0.072-0.106-0.106    c-0.034-0.037-0.071-0.072-0.106-0.107c-0.033-0.033-0.066-0.066-0.101-0.1c-0.039-0.041-0.077-0.08-0.118-0.119    c-0.031-0.033-0.064-0.064-0.099-0.099c-0.037-0.037-0.074-0.073-0.11-0.11c-0.033-0.033-0.066-0.066-0.101-0.1    c-0.038-0.039-0.076-0.077-0.114-0.115c-0.031-0.031-0.064-0.063-0.097-0.096c-0.038-0.039-0.075-0.077-0.114-0.114    c-0.033-0.034-0.066-0.068-0.102-0.102c-0.037-0.038-0.074-0.076-0.113-0.113c-0.033-0.034-0.066-0.067-0.102-0.101    c-0.035-0.037-0.071-0.073-0.108-0.109c-0.034-0.035-0.069-0.07-0.104-0.104c-0.035-0.037-0.07-0.073-0.107-0.108    c-0.035-0.036-0.07-0.071-0.106-0.106c-0.032-0.034-0.067-0.068-0.102-0.102c-0.037-0.039-0.075-0.076-0.113-0.114    c-0.032-0.033-0.065-0.066-0.099-0.099c-0.037-0.037-0.073-0.074-0.11-0.111c-0.036-0.037-0.071-0.072-0.108-0.108    c-0.035-0.036-0.069-0.07-0.104-0.105s-0.069-0.07-0.104-0.105c-0.035-0.036-0.07-0.071-0.106-0.106    c-0.035-0.036-0.07-0.071-0.106-0.106c-0.035-0.037-0.072-0.074-0.109-0.11c-0.033-0.033-0.065-0.066-0.1-0.099    c-0.037-0.037-0.072-0.074-0.109-0.11c-0.036-0.037-0.073-0.074-0.11-0.11c-0.032-0.034-0.065-0.067-0.101-0.1    c-0.034-0.036-0.069-0.071-0.105-0.106c-0.037-0.038-0.074-0.076-0.113-0.113c-0.033-0.035-0.067-0.068-0.103-0.103    c-0.036-0.037-0.072-0.072-0.108-0.108c-0.033-0.035-0.068-0.069-0.103-0.103c-0.035-0.036-0.071-0.072-0.106-0.107    c-0.035-0.036-0.07-0.071-0.105-0.106c-0.035-0.036-0.071-0.071-0.107-0.107c-0.035-0.036-0.07-0.071-0.105-0.106    c-0.037-0.038-0.074-0.075-0.111-0.111c-0.033-0.033-0.064-0.065-0.098-0.098c-0.038-0.038-0.075-0.076-0.114-0.114    c-0.033-0.034-0.067-0.067-0.101-0.101c-0.037-0.038-0.074-0.075-0.112-0.111c-0.033-0.034-0.066-0.067-0.101-0.1    c-0.037-0.037-0.072-0.074-0.109-0.11c-0.034-0.036-0.069-0.07-0.104-0.104c-0.035-0.036-0.07-0.072-0.107-0.107    c-0.035-0.036-0.071-0.072-0.107-0.108c-0.035-0.036-0.07-0.071-0.105-0.106c-0.035-0.036-0.07-0.07-0.105-0.105    c-0.037-0.037-0.072-0.073-0.111-0.11c-0.031-0.033-0.064-0.066-0.099-0.099c-0.036-0.037-0.071-0.073-0.108-0.108    c-0.035-0.037-0.072-0.073-0.107-0.109c-0.034-0.035-0.069-0.069-0.104-0.104c-0.037-0.038-0.076-0.075-0.113-0.112    c-0.031-0.032-0.063-0.064-0.096-0.096c-0.039-0.04-0.078-0.078-0.117-0.116c-0.032-0.034-0.065-0.066-0.1-0.099    c-0.037-0.038-0.074-0.075-0.111-0.111c-0.033-0.035-0.068-0.07-0.104-0.104c-0.034-0.036-0.068-0.071-0.105-0.105    c-0.035-0.037-0.071-0.074-0.108-0.11c-0.035-0.035-0.069-0.07-0.104-0.104c-0.033-0.035-0.068-0.069-0.103-0.103    c-0.036-0.037-0.072-0.073-0.108-0.109c-0.035-0.036-0.07-0.071-0.107-0.106c-0.035-0.037-0.071-0.073-0.108-0.11    c-0.032-0.034-0.065-0.067-0.101-0.1c-0.037-0.038-0.074-0.075-0.112-0.112c-0.034-0.036-0.069-0.071-0.104-0.105    c-0.035-0.035-0.069-0.07-0.104-0.104c-0.035-0.036-0.069-0.071-0.106-0.105c-0.035-0.036-0.069-0.072-0.105-0.107    c-0.035-0.036-0.07-0.071-0.105-0.106c-0.035-0.036-0.07-0.071-0.106-0.107c-0.035-0.035-0.07-0.071-0.104-0.105    c-0.037-0.037-0.074-0.074-0.111-0.11c-0.034-0.035-0.068-0.069-0.104-0.103c-0.034-0.036-0.069-0.07-0.104-0.104    c-0.034-0.037-0.071-0.073-0.107-0.109c-0.035-0.036-0.07-0.071-0.105-0.106c-0.035-0.035-0.069-0.07-0.104-0.104    c-0.036-0.037-0.071-0.073-0.108-0.108c-0.033-0.036-0.068-0.071-0.104-0.105c-0.036-0.036-0.072-0.072-0.107-0.108    c-0.035-0.035-0.068-0.069-0.104-0.103c-0.036-0.038-0.073-0.074-0.111-0.111c-0.033-0.035-0.066-0.068-0.102-0.102    c-0.037-0.038-0.074-0.075-0.111-0.111c-0.035-0.036-0.07-0.07-0.105-0.105c-0.035-0.035-0.068-0.07-0.104-0.104    c-0.036-0.037-0.072-0.073-0.109-0.109c-0.033-0.034-0.065-0.067-0.101-0.101c-0.037-0.039-0.075-0.076-0.112-0.114    c-0.033-0.033-0.066-0.066-0.101-0.099c-0.037-0.038-0.074-0.075-0.111-0.112c-0.034-0.035-0.069-0.069-0.104-0.104    c-0.035-0.036-0.07-0.071-0.105-0.106c-0.036-0.036-0.071-0.072-0.106-0.107c-0.035-0.036-0.071-0.072-0.107-0.107    c-0.035-0.036-0.07-0.072-0.107-0.107c-0.033-0.035-0.068-0.07-0.104-0.104c-0.035-0.036-0.07-0.071-0.105-0.106    c-0.037-0.037-0.072-0.073-0.108-0.109c-0.035-0.035-0.07-0.07-0.104-0.105c-0.035-0.035-0.068-0.069-0.104-0.103    c-0.036-0.037-0.072-0.073-0.109-0.109c-0.034-0.035-0.069-0.07-0.104-0.104c-0.036-0.037-0.072-0.073-0.109-0.11    c-0.034-0.035-0.069-0.069-0.104-0.104c-0.034-0.036-0.069-0.071-0.105-0.107c-0.035-0.035-0.07-0.07-0.105-0.105    c-0.034-0.036-0.07-0.071-0.106-0.106c-0.036-0.037-0.071-0.073-0.108-0.109c-0.033-0.035-0.067-0.068-0.104-0.103    c-0.035-0.036-0.071-0.072-0.107-0.107c-0.033-0.035-0.068-0.07-0.104-0.104c-0.037-0.038-0.074-0.075-0.111-0.111    c-0.035-0.036-0.07-0.07-0.105-0.105c-0.033-0.035-0.068-0.07-0.104-0.104c-0.035-0.036-0.068-0.071-0.105-0.105    c-0.034-0.036-0.07-0.072-0.106-0.108c-0.034-0.036-0.069-0.07-0.104-0.105c-0.037-0.038-0.074-0.075-0.112-0.112    c-0.032-0.034-0.065-0.067-0.101-0.1c-0.035-0.037-0.072-0.074-0.109-0.11c-0.034-0.035-0.068-0.069-0.104-0.104    c-0.037-0.037-0.074-0.074-0.111-0.111c-0.033-0.034-0.066-0.068-0.102-0.101c-0.035-0.037-0.072-0.073-0.109-0.109    c-0.034-0.036-0.069-0.071-0.104-0.105c-0.034-0.036-0.071-0.071-0.106-0.106C35.729,17.808,33.959,17,32,17c-3.866,0-7,3.134-7,7    c0,1.96,0.808,3.73,2.107,5.001c0.035,0.036,0.07,0.071,0.105,0.105c0.035,0.036,0.07,0.07,0.105,0.105    c0.036,0.037,0.073,0.073,0.109,0.109c0.035,0.036,0.07,0.071,0.106,0.105c0.035,0.036,0.07,0.07,0.105,0.105    c0.036,0.036,0.071,0.072,0.107,0.107c0.035,0.036,0.07,0.07,0.105,0.105c0.035,0.036,0.071,0.071,0.106,0.106    c0.036,0.037,0.073,0.073,0.109,0.109c0.035,0.035,0.069,0.069,0.104,0.104c0.036,0.036,0.071,0.072,0.107,0.107    c0.034,0.035,0.069,0.069,0.104,0.104c0.037,0.038,0.073,0.074,0.111,0.111c0.034,0.036,0.069,0.07,0.104,0.104    c0.035,0.036,0.07,0.071,0.105,0.105c0.035,0.036,0.07,0.071,0.106,0.105c0.035,0.036,0.07,0.071,0.106,0.106    c0.036,0.037,0.071,0.072,0.108,0.108c0.036,0.036,0.071,0.072,0.107,0.107c0.035,0.036,0.071,0.071,0.106,0.106    c0.035,0.036,0.07,0.071,0.106,0.106c0.035,0.035,0.069,0.07,0.104,0.104c0.035,0.036,0.071,0.072,0.107,0.107    c0.036,0.037,0.072,0.073,0.109,0.108c0.034,0.035,0.069,0.069,0.104,0.104c0.034,0.035,0.069,0.069,0.104,0.104    c0.037,0.038,0.074,0.075,0.112,0.112c0.035,0.035,0.07,0.07,0.105,0.105c0.035,0.035,0.069,0.07,0.104,0.104    c0.035,0.036,0.071,0.071,0.106,0.106c0.035,0.036,0.07,0.071,0.106,0.106c0.036,0.037,0.072,0.073,0.109,0.108    c0.035,0.036,0.07,0.07,0.105,0.105c0.034,0.035,0.069,0.07,0.104,0.104c0.035,0.035,0.071,0.072,0.107,0.106    c0.035,0.035,0.07,0.07,0.105,0.104c0.036,0.037,0.071,0.072,0.108,0.107c0.035,0.036,0.071,0.071,0.107,0.106    c0.035,0.036,0.07,0.071,0.106,0.106c0.035,0.035,0.07,0.069,0.105,0.104c0.037,0.036,0.073,0.073,0.111,0.108    c0.033,0.034,0.066,0.067,0.1,0.101c0.037,0.038,0.074,0.075,0.112,0.112c0.033,0.033,0.066,0.066,0.1,0.101    c0.037,0.038,0.074,0.075,0.112,0.112c0.034,0.033,0.068,0.068,0.103,0.103c0.034,0.035,0.068,0.069,0.104,0.104    C32.066,33.994,32.037,34,32,34c-4,0-6-2-7-2c-1.104,0-2,0.896-2,2c0,0.768,0.334,1.225,0.685,1.514    c0.036,0.034,0.069,0.075,0.106,0.105c0.037,0.035,0.069,0.076,0.107,0.107c0.036,0.033,0.069,0.074,0.106,0.104    c0.037,0.035,0.07,0.077,0.108,0.106c0.036,0.035,0.069,0.076,0.105,0.105c0.036,0.034,0.068,0.075,0.105,0.105    c0.037,0.033,0.069,0.074,0.106,0.105c0.037,0.035,0.07,0.077,0.108,0.107c0.036,0.033,0.068,0.074,0.104,0.104    c0.037,0.035,0.07,0.077,0.108,0.107c0.037,0.035,0.069,0.076,0.106,0.105c0.037,0.035,0.07,0.077,0.108,0.108    c0.036,0.032,0.068,0.073,0.104,0.104c0.037,0.034,0.07,0.076,0.108,0.106c0.035,0.032,0.067,0.073,0.103,0.104    c0.038,0.035,0.071,0.078,0.11,0.108c0.036,0.034,0.068,0.075,0.105,0.104c0.037,0.035,0.069,0.076,0.106,0.106    c0.037,0.035,0.07,0.076,0.107,0.106c0.037,0.035,0.069,0.076,0.106,0.105c0.036,0.034,0.068,0.075,0.105,0.105    c0.037,0.035,0.07,0.076,0.108,0.106c0.036,0.034,0.069,0.075,0.106,0.106c0.036,0.033,0.068,0.074,0.104,0.104    c0.037,0.035,0.07,0.077,0.108,0.107c0.037,0.035,0.07,0.076,0.107,0.107c0.036,0.033,0.069,0.074,0.105,0.104    c0.037,0.035,0.069,0.076,0.106,0.106c0.037,0.033,0.069,0.074,0.106,0.105c0.036,0.034,0.069,0.075,0.106,0.105    c0.037,0.035,0.07,0.076,0.107,0.106c0.036,0.034,0.068,0.075,0.105,0.104c0.036,0.035,0.068,0.076,0.105,0.105    c0.038,0.036,0.072,0.078,0.11,0.109c0.035,0.033,0.067,0.072,0.103,0.104c0.037,0.035,0.07,0.077,0.108,0.108    c0.036,0.032,0.068,0.073,0.105,0.104c0.037,0.034,0.07,0.075,0.107,0.106c0.011,0.01,0.02,0.022,0.031,0.032l-3.01,3.852    c0,0-0.75,0.936-0.75,1.563c0,0.58,0.25,1.098,0.645,1.463c0.034,0.037,0.069,0.072,0.106,0.105    c0.035,0.037,0.071,0.073,0.108,0.107c0.034,0.037,0.068,0.07,0.104,0.104c0.035,0.039,0.071,0.074,0.108,0.108    c0.034,0.037,0.068,0.071,0.105,0.104c0.034,0.037,0.07,0.072,0.107,0.106c0.034,0.036,0.069,0.071,0.105,0.104    c0.034,0.037,0.07,0.072,0.107,0.106c0.035,0.037,0.07,0.073,0.107,0.106c0.033,0.037,0.067,0.07,0.103,0.104    c0.035,0.039,0.072,0.075,0.11,0.11c0.034,0.036,0.069,0.071,0.106,0.104c0.034,0.037,0.069,0.071,0.105,0.105    c0.035,0.037,0.07,0.072,0.107,0.107c0.034,0.035,0.069,0.07,0.105,0.104c0.034,0.036,0.069,0.071,0.106,0.104    c0.034,0.037,0.069,0.072,0.106,0.107c0.035,0.037,0.071,0.072,0.109,0.107c0.033,0.035,0.067,0.069,0.103,0.103    c0.035,0.039,0.072,0.075,0.11,0.11c0.034,0.035,0.068,0.07,0.104,0.104c0.035,0.038,0.07,0.073,0.107,0.107    c0.034,0.037,0.069,0.072,0.106,0.105c0.034,0.037,0.068,0.071,0.105,0.105c0.035,0.037,0.071,0.072,0.108,0.107    c0.034,0.037,0.069,0.072,0.106,0.106c0.034,0.036,0.069,0.069,0.105,0.104c0.035,0.037,0.07,0.072,0.107,0.106    c0.034,0.037,0.069,0.071,0.106,0.106c0.034,0.035,0.069,0.07,0.106,0.104c0.035,0.037,0.07,0.073,0.107,0.106    c0.034,0.037,0.069,0.072,0.105,0.104c0.034,0.037,0.069,0.072,0.106,0.106c0.035,0.037,0.071,0.072,0.109,0.107    c0.034,0.036,0.068,0.071,0.104,0.104c0.034,0.036,0.068,0.071,0.105,0.104c0.035,0.038,0.071,0.073,0.109,0.108    c0.034,0.037,0.069,0.071,0.105,0.104c0.034,0.037,0.069,0.072,0.106,0.106c0.034,0.036,0.069,0.071,0.106,0.106    c0.035,0.037,0.07,0.071,0.107,0.105c0.034,0.036,0.068,0.07,0.105,0.104c0.035,0.039,0.071,0.074,0.109,0.109    c0.033,0.036,0.067,0.07,0.103,0.104c0.035,0.037,0.07,0.072,0.107,0.107c0.035,0.037,0.07,0.072,0.107,0.107    c0.034,0.037,0.07,0.072,0.106,0.105c0.034,0.036,0.069,0.071,0.105,0.104c0.035,0.038,0.07,0.073,0.108,0.106    c0.034,0.037,0.068,0.071,0.105,0.105c0.034,0.035,0.069,0.07,0.106,0.105c0.034,0.037,0.07,0.072,0.107,0.106    c0.035,0.037,0.07,0.073,0.108,0.106c0.033,0.037,0.067,0.07,0.104,0.104c0.035,0.038,0.072,0.074,0.11,0.11    c0.034,0.035,0.068,0.07,0.105,0.104c0.034,0.036,0.069,0.071,0.106,0.105c0.034,0.037,0.069,0.072,0.106,0.105    c0.034,0.037,0.069,0.072,0.106,0.106c0.034,0.036,0.069,0.071,0.106,0.106c0.035,0.036,0.07,0.071,0.107,0.106    c0.034,0.036,0.068,0.069,0.104,0.104c0.035,0.036,0.07,0.072,0.107,0.106c0.034,0.037,0.07,0.071,0.107,0.106    c0.034,0.035,0.069,0.07,0.105,0.104c0.035,0.037,0.07,0.071,0.107,0.106c0.034,0.037,0.069,0.071,0.106,0.106    c0.034,0.036,0.069,0.071,0.105,0.104c0.035,0.037,0.07,0.072,0.107,0.106c0.034,0.037,0.069,0.072,0.106,0.106    c0.034,0.035,0.068,0.07,0.104,0.104c0.035,0.037,0.07,0.073,0.107,0.107c0.035,0.037,0.07,0.072,0.107,0.107    c0.034,0.035,0.069,0.07,0.105,0.104c0.034,0.037,0.069,0.071,0.106,0.106c0.035,0.037,0.069,0.072,0.106,0.106    c0.034,0.036,0.069,0.069,0.104,0.104c0.035,0.037,0.069,0.071,0.106,0.105c0.035,0.038,0.071,0.073,0.108,0.107    c0.033,0.037,0.066,0.069,0.103,0.104c0.035,0.038,0.071,0.074,0.108,0.107c0.033,0.037,0.068,0.072,0.105,0.104    c0.034,0.038,0.069,0.074,0.107,0.109c0.033,0.036,0.068,0.069,0.104,0.104c0.035,0.037,0.071,0.072,0.108,0.107    c0.034,0.037,0.069,0.07,0.106,0.105c0.033,0.037,0.068,0.071,0.104,0.104c0.034,0.037,0.069,0.071,0.106,0.106    c0.033,0.035,0.066,0.069,0.104,0.104c0.037,0.039,0.074,0.076,0.113,0.111c0.031,0.035,0.064,0.067,0.1,0.101    c0.036,0.039,0.073,0.075,0.112,0.11c0.032,0.035,0.065,0.068,0.101,0.102c0.036,0.039,0.072,0.076,0.111,0.111    c0.033,0.037,0.068,0.07,0.104,0.104c0.035,0.037,0.069,0.072,0.106,0.106c0.034,0.036,0.069,0.071,0.104,0.106    s0.069,0.07,0.106,0.104c0.035,0.037,0.07,0.073,0.106,0.106c0.033,0.037,0.067,0.07,0.104,0.104    c0.035,0.038,0.072,0.073,0.11,0.108c0.033,0.037,0.068,0.072,0.105,0.105c0.033,0.037,0.068,0.072,0.105,0.105    c0.033,0.037,0.068,0.072,0.105,0.106c0.034,0.036,0.068,0.07,0.104,0.104c0.034,0.037,0.069,0.072,0.106,0.105    c0.035,0.037,0.068,0.072,0.105,0.106c0.035,0.038,0.072,0.073,0.109,0.108c0.033,0.036,0.067,0.07,0.104,0.104    c0.034,0.037,0.069,0.071,0.106,0.106c0.033,0.037,0.068,0.071,0.105,0.105c0.034,0.037,0.069,0.072,0.105,0.105    c0.035,0.039,0.072,0.073,0.109,0.108c0.032,0.035,0.066,0.069,0.103,0.103c0.034,0.037,0.071,0.074,0.108,0.108    c0.034,0.037,0.069,0.072,0.106,0.106c0.033,0.035,0.067,0.07,0.104,0.104c0.033,0.037,0.067,0.072,0.104,0.106    c0.035,0.038,0.071,0.073,0.11,0.108c0.033,0.037,0.068,0.072,0.105,0.106c0.034,0.036,0.068,0.069,0.104,0.104    c0.035,0.037,0.07,0.07,0.105,0.104c0.034,0.037,0.069,0.073,0.105,0.106c0.035,0.037,0.07,0.071,0.105,0.105    c0.035,0.038,0.071,0.074,0.109,0.109c0.033,0.035,0.066,0.068,0.104,0.102c0.035,0.039,0.071,0.076,0.11,0.112    c0.033,0.034,0.065,0.067,0.103,0.101c0.035,0.039,0.071,0.076,0.11,0.111c0.033,0.035,0.067,0.07,0.104,0.104    c0.035,0.038,0.07,0.074,0.108,0.109c0.033,0.035,0.066,0.068,0.103,0.102c0.035,0.037,0.07,0.073,0.107,0.108    c0.035,0.037,0.07,0.073,0.108,0.106c0.032,0.037,0.067,0.072,0.104,0.104c0.033,0.038,0.069,0.073,0.106,0.108    c0.034,0.035,0.067,0.07,0.104,0.104c0.034,0.038,0.069,0.073,0.107,0.108c0.034,0.036,0.068,0.071,0.105,0.104    c0.033,0.037,0.068,0.072,0.105,0.106c0.033,0.036,0.066,0.069,0.104,0.104c0.037,0.037,0.072,0.074,0.111,0.109    c0.034,0.037,0.069,0.07,0.105,0.105c0.033,0.035,0.068,0.07,0.105,0.104c0.032,0.037,0.067,0.072,0.104,0.105    c0.035,0.039,0.072,0.074,0.109,0.109c0.034,0.036,0.068,0.07,0.104,0.104c0.034,0.037,0.069,0.072,0.106,0.106    c0.032,0.036,0.066,0.07,0.104,0.104c0.036,0.039,0.074,0.076,0.113,0.111c0.031,0.034,0.063,0.066,0.098,0.098    c0.037,0.041,0.074,0.078,0.113,0.113c0.033,0.037,0.066,0.069,0.103,0.104c0.035,0.038,0.072,0.074,0.11,0.109    c0.033,0.035,0.066,0.068,0.102,0.103c0.035,0.038,0.071,0.074,0.109,0.108c0.033,0.037,0.07,0.072,0.107,0.106    c0.032,0.036,0.067,0.07,0.104,0.104c0.034,0.037,0.068,0.072,0.105,0.105c0.035,0.037,0.069,0.072,0.106,0.105    c0.034,0.037,0.069,0.072,0.106,0.106c0.033,0.037,0.068,0.072,0.105,0.106c0.034,0.037,0.069,0.072,0.105,0.105    c0.035,0.037,0.07,0.073,0.107,0.107c0.034,0.037,0.069,0.07,0.105,0.105c0.035,0.037,0.07,0.071,0.107,0.105    c0.033,0.037,0.068,0.07,0.104,0.105c0.034,0.037,0.069,0.071,0.106,0.105c0.033,0.037,0.068,0.072,0.105,0.105    c0.034,0.037,0.068,0.072,0.105,0.106c0.035,0.038,0.071,0.073,0.108,0.108c0.032,0.035,0.065,0.068,0.101,0.101    c0.037,0.04,0.074,0.077,0.114,0.114c0.032,0.033,0.065,0.066,0.101,0.1c0.035,0.038,0.072,0.075,0.111,0.111    c0.032,0.035,0.066,0.068,0.103,0.104c0.034,0.037,0.071,0.072,0.108,0.106c0.034,0.038,0.07,0.074,0.108,0.108    c0.032,0.035,0.065,0.068,0.101,0.102c0.035,0.038,0.071,0.074,0.109,0.109c0.034,0.037,0.07,0.072,0.107,0.105    c0.033,0.036,0.066,0.07,0.104,0.104c0.035,0.037,0.07,0.074,0.107,0.109c0.035,0.035,0.068,0.069,0.104,0.104    c0.035,0.037,0.07,0.072,0.108,0.107c0.033,0.036,0.068,0.07,0.104,0.104c0.035,0.038,0.072,0.073,0.11,0.11    c0.032,0.035,0.067,0.068,0.104,0.104c0.033,0.036,0.068,0.07,0.105,0.105c0.034,0.037,0.068,0.071,0.105,0.105    c0.035,0.037,0.069,0.072,0.106,0.105c0.034,0.037,0.069,0.072,0.106,0.107c0.035,0.036,0.068,0.07,0.104,0.104    c0.035,0.039,0.071,0.074,0.11,0.109c0.031,0.035,0.066,0.069,0.102,0.104c0.036,0.037,0.072,0.074,0.11,0.109    c0.032,0.035,0.067,0.069,0.103,0.104c0.035,0.037,0.071,0.072,0.109,0.107c0.033,0.037,0.068,0.071,0.105,0.105    c0.033,0.037,0.068,0.072,0.105,0.105c0.035,0.039,0.07,0.074,0.109,0.108c0.033,0.036,0.066,0.07,0.104,0.104    c0.033,0.035,0.066,0.07,0.104,0.104c0.037,0.038,0.074,0.075,0.111,0.111c0.033,0.035,0.067,0.068,0.104,0.102    c0.035,0.038,0.07,0.074,0.107,0.108c0.033,0.036,0.068,0.071,0.104,0.104c0.034,0.038,0.071,0.074,0.108,0.109    c0.033,0.036,0.067,0.07,0.104,0.104c0.036,0.039,0.073,0.075,0.112,0.111c0.031,0.034,0.064,0.066,0.1,0.1    c0.035,0.037,0.07,0.073,0.107,0.108c0.035,0.037,0.069,0.072,0.106,0.106c0.034,0.037,0.069,0.072,0.106,0.105    c0.035,0.037,0.07,0.073,0.107,0.107c0.033,0.035,0.067,0.07,0.104,0.104c0.035,0.038,0.072,0.075,0.111,0.11    c0.032,0.036,0.065,0.069,0.103,0.103c0.034,0.039,0.071,0.074,0.108,0.109c0.033,0.036,0.068,0.07,0.104,0.104    c0.034,0.037,0.069,0.072,0.106,0.106c0.033,0.037,0.068,0.072,0.105,0.106c0.035,0.037,0.07,0.072,0.107,0.106    c0.033,0.036,0.068,0.071,0.104,0.104c0.034,0.037,0.07,0.072,0.106,0.106c0.035,0.037,0.068,0.071,0.105,0.104    c0.034,0.037,0.069,0.072,0.106,0.107c0.034,0.035,0.067,0.07,0.104,0.104c0.034,0.036,0.069,0.071,0.106,0.106    c0.034,0.037,0.069,0.073,0.108,0.107c0.033,0.037,0.068,0.072,0.105,0.105c0.034,0.037,0.068,0.07,0.104,0.104    c0.035,0.037,0.07,0.073,0.108,0.108c0.033,0.035,0.067,0.068,0.104,0.103c0.035,0.038,0.07,0.074,0.107,0.108    c0.034,0.037,0.069,0.072,0.105,0.105c0.033,0.036,0.068,0.071,0.104,0.104c0.035,0.039,0.071,0.076,0.11,0.111    c0.031,0.034,0.064,0.067,0.102,0.102c0.035,0.039,0.072,0.074,0.111,0.111c0.033,0.035,0.066,0.069,0.104,0.104    c0.035,0.037,0.069,0.072,0.106,0.105c0.034,0.037,0.069,0.072,0.106,0.106c0.033,0.037,0.068,0.072,0.105,0.106    c0.035,0.037,0.07,0.072,0.107,0.106c0.033,0.037,0.068,0.071,0.104,0.104c0.035,0.037,0.07,0.072,0.107,0.106    c0.034,0.037,0.069,0.071,0.104,0.104c0.034,0.037,0.069,0.072,0.106,0.106c0.034,0.037,0.069,0.072,0.106,0.106    c0.033,0.037,0.068,0.072,0.105,0.105c0.033,0.037,0.07,0.072,0.107,0.107c0.033,0.036,0.067,0.07,0.104,0.104    c0.035,0.039,0.07,0.074,0.109,0.109c0.033,0.036,0.066,0.068,0.103,0.104c0.035,0.037,0.071,0.074,0.108,0.107    c0.035,0.037,0.07,0.071,0.105,0.105c0.034,0.037,0.069,0.072,0.105,0.105c0.035,0.037,0.07,0.072,0.105,0.105    c0.034,0.037,0.068,0.07,0.104,0.104c0.036,0.039,0.073,0.076,0.112,0.112c0.031,0.035,0.065,0.068,0.103,0.102    c0.034,0.038,0.069,0.073,0.106,0.108c0.035,0.036,0.069,0.071,0.106,0.104c0.033,0.037,0.067,0.071,0.104,0.105    c0.035,0.037,0.069,0.073,0.107,0.107c0.034,0.037,0.069,0.072,0.105,0.105c0.035,0.037,0.07,0.072,0.106,0.105    c0.034,0.037,0.069,0.072,0.104,0.105c0.035,0.037,0.07,0.072,0.106,0.105c0.034,0.037,0.069,0.072,0.106,0.106    c0.033,0.037,0.068,0.072,0.105,0.106c0.034,0.037,0.07,0.072,0.107,0.107c0.033,0.035,0.068,0.069,0.104,0.104    c0.035,0.038,0.071,0.074,0.109,0.109c0.034,0.035,0.068,0.069,0.104,0.104c0.035,0.037,0.069,0.072,0.106,0.105    c0.034,0.037,0.069,0.072,0.106,0.106c0.033,0.037,0.068,0.072,0.105,0.106c0.034,0.037,0.069,0.072,0.105,0.105    c0.035,0.037,0.07,0.072,0.106,0.105c0.034,0.037,0.069,0.072,0.106,0.106c0.033,0.037,0.068,0.072,0.107,0.106    c0.033,0.037,0.068,0.072,0.105,0.105c0.033,0.037,0.068,0.071,0.105,0.105c0.033,0.036,0.067,0.07,0.104,0.105    c0.035,0.037,0.069,0.073,0.108,0.107c0.033,0.037,0.067,0.07,0.104,0.105c0.033,0.035,0.067,0.069,0.104,0.104    c0.035,0.039,0.071,0.075,0.109,0.111c0.034,0.035,0.068,0.07,0.104,0.104c0.035,0.037,0.07,0.072,0.106,0.105    c0.034,0.037,0.069,0.072,0.106,0.106c0.033,0.037,0.068,0.072,0.105,0.106c0.034,0.037,0.069,0.072,0.106,0.105    c0.034,0.037,0.069,0.073,0.106,0.107c0.034,0.037,0.069,0.07,0.106,0.105c0.034,0.037,0.069,0.071,0.104,0.104    c0.035,0.037,0.069,0.071,0.106,0.106c0.034,0.037,0.069,0.071,0.106,0.105c0.451,0.5,0.968,0.75,1.547,0.75    c1.021,0,1.484-0.656,1.484-0.656s3.031-3.599,4.125-4.888c0.02,0.021,0.045,0.043,0.068,0.065c0.023,0.026,0.059,0.061,0.102,0.1    c0.024,0.029,0.061,0.064,0.106,0.107c0.022,0.026,0.058,0.061,0.101,0.101c0.025,0.03,0.063,0.067,0.114,0.114    c0.026,0.031,0.063,0.066,0.11,0.109c0.023,0.027,0.058,0.061,0.099,0.098c0.024,0.029,0.06,0.063,0.104,0.105    c0.025,0.03,0.063,0.068,0.115,0.114c0.022,0.026,0.055,0.06,0.094,0.096c0.025,0.029,0.063,0.066,0.113,0.112    c0.023,0.027,0.06,0.063,0.104,0.104c0.025,0.03,0.063,0.067,0.113,0.113c0.022,0.025,0.057,0.059,0.098,0.098    c0.025,0.028,0.063,0.065,0.109,0.109c0.023,0.027,0.06,0.063,0.105,0.105c0.025,0.029,0.063,0.066,0.109,0.11    c0.025,0.028,0.061,0.062,0.104,0.103c0.025,0.029,0.061,0.063,0.105,0.106c0.025,0.028,0.062,0.063,0.107,0.105    c0.024,0.028,0.061,0.063,0.105,0.106c0.025,0.029,0.063,0.066,0.111,0.111c0.024,0.027,0.059,0.061,0.102,0.1    c0.025,0.029,0.061,0.064,0.105,0.107c0.025,0.027,0.062,0.063,0.106,0.105c0.024,0.028,0.062,0.063,0.106,0.106    c0.024,0.028,0.061,0.063,0.105,0.104c0.025,0.029,0.061,0.064,0.105,0.107c0.027,0.029,0.063,0.066,0.113,0.111    c0.023,0.027,0.059,0.061,0.101,0.1c0.024,0.029,0.061,0.064,0.106,0.106c0.023,0.026,0.057,0.062,0.102,0.102    c0.025,0.03,0.064,0.069,0.115,0.115c0.023,0.028,0.06,0.063,0.104,0.104c0.023,0.026,0.057,0.061,0.1,0.101    c0.025,0.028,0.063,0.065,0.109,0.108c0.027,0.03,0.064,0.069,0.117,0.117c0.023,0.025,0.055,0.057,0.093,0.092    c0.024,0.029,0.063,0.066,0.11,0.11c0.025,0.029,0.061,0.063,0.105,0.107c0.025,0.028,0.061,0.063,0.106,0.104    c0.026,0.03,0.063,0.067,0.11,0.111c0.025,0.027,0.061,0.063,0.104,0.104c0.024,0.027,0.06,0.063,0.104,0.104    c0.024,0.029,0.061,0.064,0.105,0.107c0.025,0.027,0.061,0.063,0.105,0.104c0.025,0.028,0.062,0.063,0.106,0.106    C68.736,78.564,69.193,79,70.029,79c1.104,0,2-0.896,2-2c0-0.627-0.75-1.563-0.75-1.563L67.029,70c0,0,3.813-1.573,5-2.266    c0.432-0.254,1-0.734,1-1.734C73.029,65.421,72.777,64.902,72.385,64.538z" enable-background="new    " fill="url(#SVGID_3_)" opacity="0.3"/></g></g><g id="OK_1_"><path d="M39,32c-1,0-3,2-7,2s-6-2-7-2c-1.104,0-2,0.896-2,2c0,1,0.568,1.48,1,1.734   C25.186,36.427,29,38,29,38l-4.25,5.438c0,0-0.75,0.937-0.75,1.563c0,1.104,0.896,2,2,2c1.021,0,1.484-0.655,1.484-0.655   S31.993,40.993,32,41c0.007-0.007,4.516,5.344,4.516,5.344S36.979,47,38,47c1.104,0,2-0.896,2-2c0-0.627-0.75-1.563-0.75-1.563   L35,38c0,0,3.814-1.573,5-2.266C40.432,35.48,41,35,41,34C41,32.896,40.104,32,39,32z" fill="#FFFFFF" id="K_1_"/><path d="M32,17c-3.866,0-7,3.134-7,7s3.134,7,7,7c3.865,0,7-3.134,7-7S35.865,17,32,17z M32,27.5   c-1.934,0-3.5-1.566-3.5-3.5c0-1.933,1.566-3.5,3.5-3.5c1.932,0,3.5,1.567,3.5,3.5C35.5,25.934,33.932,27.5,32,27.5z" fill="#FFFFFF" id="O_1_"/></g></svg>